<svg width="20" height="20" viewBox="0 0 20 20" fill="none" xmlns="http://www.w3.org/2000/svg">
<path d="M12.4976 1.6665H4.9985C4.55653 1.6665 4.13265 1.84208 3.82013 2.1546C3.50761 2.46713 3.33203 2.891 3.33203 3.33298V16.6647C3.33203 17.1067 3.50761 17.5306 3.82013 17.8431C4.13265 18.1556 4.55653 18.3312 4.9985 18.3312H14.9973C15.4393 18.3312 15.8632 18.1556 16.1757 17.8431C16.4882 17.5306 16.6638 17.1067 16.6638 16.6647V5.83268L12.4976 1.6665Z" stroke="#7A48DB" stroke-width="1.66647" stroke-linecap="round" stroke-linejoin="round"/>
<path d="M11.666 1.6665V4.99945C11.666 5.44142 11.8416 5.8653 12.1541 6.17782C12.4666 6.49034 12.8905 6.66592 13.3325 6.66592H16.6654" stroke="#7A48DB" stroke-width="1.66647" stroke-linecap="round" stroke-linejoin="round"/>
<path d="M8.33249 7.49902H6.66602" stroke="#7A48DB" stroke-width="1.66647" stroke-linecap="round" stroke-linejoin="round"/>
<path d="M13.3319 10.832H6.66602" stroke="#7A48DB" stroke-width="1.66647" stroke-linecap="round" stroke-linejoin="round"/>
<path d="M13.3319 14.165H6.66602" stroke="#7A48DB" stroke-width="1.66647" stroke-linecap="round" stroke-linejoin="round"/>
</svg>
