<svg width="20" height="20" viewBox="0 0 20 20" fill="none" xmlns="http://www.w3.org/2000/svg">
<path d="M16.6638 10.832C16.6638 14.9982 13.7475 17.0813 10.2812 18.2894C10.0997 18.351 9.90254 18.348 9.72295 18.2811C6.24836 17.0813 3.33203 14.9982 3.33203 10.832V4.99933C3.33203 4.77835 3.41982 4.56641 3.57608 4.41015C3.73234 4.25388 3.94428 4.1661 4.16527 4.1661C5.83174 4.1661 7.91483 3.16621 9.36466 1.8997C9.54118 1.74888 9.76574 1.66602 9.99792 1.66602C10.2301 1.66602 10.4547 1.74888 10.6312 1.8997C12.0893 3.17455 14.1641 4.1661 15.8306 4.1661C16.0516 4.1661 16.2635 4.25388 16.4198 4.41015C16.576 4.56641 16.6638 4.77835 16.6638 4.99933V10.832Z" stroke="#7A48DB" stroke-width="1.66647" stroke-linecap="round" stroke-linejoin="round"/>
</svg>
