<svg preserveAspectRatio="none" width="100%" height="100%" overflow="visible" style="display: block;" viewBox="0 0 24 24" fill="none" xmlns="http://www.w3.org/2000/svg">
<g id="Swap">
<path id="Vector" d="M21.375 4.5V14.25C21.375 14.7473 21.1775 15.2242 20.8258 15.5758C20.4742 15.9275 19.9973 16.125 19.5 16.125H10.5862C10.7771 16.3438 10.8759 16.628 10.8621 16.918C10.8483 17.2081 10.7228 17.4815 10.512 17.6812C10.3012 17.8809 10.0213 17.9913 9.73097 17.9894C9.44061 17.9875 9.16223 17.8734 8.95406 17.6709L7.07906 15.7959C6.97418 15.6914 6.89097 15.5672 6.83418 15.4305C6.7774 15.2937 6.74818 15.1471 6.74818 14.9991C6.74818 14.851 6.7774 14.7044 6.83418 14.5676C6.89097 14.4309 6.97418 14.3067 7.07906 14.2022L8.95406 12.3272C9.16116 12.1187 9.44159 11.9996 9.73539 11.9952C10.0292 11.9908 10.3131 12.1016 10.5263 12.3038C10.7395 12.506 10.8651 12.7835 10.8763 13.0772C10.8875 13.3708 10.7834 13.6571 10.5862 13.875H19.125V4.875H9.375C9.375 5.17337 9.25647 5.45952 9.0455 5.6705C8.83452 5.88147 8.54837 6 8.25 6C7.95163 6 7.66548 5.88147 7.4545 5.6705C7.24353 5.45952 7.125 5.17337 7.125 4.875V4.5C7.125 4.00272 7.32254 3.52581 7.67417 3.17417C8.02581 2.82254 8.50272 2.625 9 2.625H19.5C19.9973 2.625 20.4742 2.82254 20.8258 3.17417C21.1775 3.52581 21.375 4.00272 21.375 4.5ZM15.75 18C15.4516 18 15.1655 18.1185 14.9545 18.3295C14.7435 18.5405 14.625 18.8266 14.625 19.125H4.875V10.125H13.4138C13.2229 10.3438 13.1241 10.628 13.1379 10.918C13.1517 11.2081 13.2772 11.4815 13.488 11.6812C13.6988 11.8809 13.9787 11.9913 14.269 11.9894C14.5594 11.9875 14.8378 11.8734 15.0459 11.6709L16.9209 9.79594C17.0258 9.69142 17.109 9.56723 17.1658 9.43048C17.2226 9.29374 17.2518 9.14713 17.2518 8.99906C17.2518 8.851 17.2226 8.70439 17.1658 8.56764C17.109 8.4309 17.0258 8.3067 16.9209 8.20219L15.0459 6.32719C14.8388 6.11874 14.5584 5.99959 14.2646 5.99521C13.9708 5.99084 13.6869 6.10158 13.4737 6.30377C13.2605 6.50596 13.1349 6.78354 13.1237 7.07717C13.1125 7.37079 13.2166 7.65714 13.4138 7.875H4.5C4.00272 7.875 3.52581 8.07254 3.17417 8.42417C2.82254 8.77581 2.625 9.25272 2.625 9.75V19.5C2.625 19.9973 2.82254 20.4742 3.17417 20.8258C3.52581 21.1775 4.00272 21.375 4.5 21.375H15C15.4973 21.375 15.9742 21.1775 16.3258 20.8258C16.6775 20.4742 16.875 19.9973 16.875 19.5V19.125C16.875 18.8266 16.7565 18.5405 16.5455 18.3295C16.3345 18.1185 16.0484 18 15.75 18Z" fill="#7A48DB"/>
</g>
</svg>
