<svg width="31" height="13" viewBox="0 0 31 13" fill="none" xmlns="http://www.w3.org/2000/svg">
<rect width="31" height="13" fill="#1E1E1E"/>
<g id="Frame 33">
<rect width="506" height="522" transform="translate(-257.679 -85.6169)" fill="white"/>
<g id="Lash volume">
<rect x="-20.1787" y="-47.1169" width="70" height="318.548" rx="4.5" stroke="#8A38F5" stroke-dasharray="10 5"/>
<g id="Property 1=2D_volume">
<path id="Vector 12" d="M1.1426 0.500007C0.928391 0.755404 0.714187 1.0108 0.499983 1.2662C0.911389 1.60047 1.35328 1.9274 1.791 2.23063C9.84637 7.39607 19.2396 10.5463 28.7463 10.4775C29.2704 10.4612 29.801 10.4301 30.3213 10.3831C29.7997 10.4134 29.269 10.4279 28.7455 10.4275C19.2809 10.2052 10.0175 6.73199 2.34423 1.45834C1.93214 1.15299 1.51946 0.827093 1.1426 0.500007Z" fill="black"/>
<path id="Vector 11" d="M0.642595 6.64592e-06C0.428391 0.255404 0.214187 0.510801 -1.70767e-05 0.766198C0.40944 1.09881 0.845878 1.43869 1.27302 1.76015C9.05322 7.36616 17.991 12.2637 27.7219 12.4606C28.2547 12.4559 28.7922 12.4307 29.3213 12.3831C28.791 12.4141 28.2537 12.4225 27.7222 12.4106C18.0454 11.913 9.34506 6.76667 1.85611 1.01015C1.44716 0.681723 1.03032 0.336154 0.642595 6.64592e-06Z" fill="black"/>
</g>
</g>
</g>
</svg>
