<svg width="30" height="12" viewBox="0 0 30 12" fill="none" xmlns="http://www.w3.org/2000/svg">
<rect width="30" height="12" fill="#1E1E1E"/>
<g id="Frame 33">
<rect width="506" height="522" transform="translate(-257.679 -238.592)" fill="white"/>
<g id="Lash volume">
<rect x="-20.1787" y="-200.092" width="70" height="318.548" rx="4.5" stroke="#8A38F5" stroke-dasharray="10 5"/>
<g id="Property 1=7D_volume">
<path id="Vector 25" d="M0.642595 0.0246801C0.428391 0.280077 0.214187 0.535474 -1.70767e-05 0.790872C0.404188 1.11915 0.841575 1.41276 1.28846 1.67077C9.72689 5.65358 19.0216 4.54577 27.8412 4.03647C28.3325 3.99577 28.8314 3.95243 29.3213 3.90778C28.8302 3.93581 28.3302 3.96252 27.8379 3.98657C19.052 4.2291 9.55481 4.88859 1.77683 0.855903C1.37515 0.605593 0.989746 0.326899 0.642595 0.0246801Z" fill="black"/>
<path id="Vector 26" d="M0.610646 1.06692e-05C0.417741 0.271854 0.224837 0.543698 0.031932 0.815541C0.459266 1.10879 0.921931 1.3616 1.3851 1.57412C10.0787 4.66553 19.0872 3.02156 27.8545 2.52541C28.3409 2.48627 28.8358 2.44655 29.3213 2.40778C28.8347 2.42992 28.3388 2.453 27.8513 2.47551C19.1203 2.69929 9.85023 3.92388 1.79561 0.717396C1.37951 0.508997 0.973421 0.267952 0.610646 1.06692e-05Z" fill="black"/>
<path id="Vector 24" d="M0.642595 0.0246801C0.428391 0.280077 0.214187 0.535474 -1.70767e-05 0.790872C0.402866 1.11801 0.83695 1.41736 1.27798 1.68576C9.5387 5.98961 18.924 5.9595 27.8292 5.52814C28.3249 5.49312 28.8276 5.45272 29.3213 5.40778C28.8263 5.4361 28.3228 5.45985 27.8266 5.47822C18.9523 5.63677 9.46629 5.24224 1.78501 0.882387C1.38337 0.61917 0.99459 0.330939 0.642595 0.0246801Z" fill="black"/>
<path id="Vector 20" d="M0.642595 0.0246801C0.428391 0.280077 0.214187 0.535474 -1.70767e-05 0.790872C0.402598 1.11777 0.83485 1.42381 1.27123 1.70287C9.37996 6.30454 18.7852 7.36103 27.8132 7.01971C28.3146 6.99052 28.8223 6.95312 29.3213 6.90778C28.8211 6.9365 28.3127 6.95724 27.8111 6.96975C18.8142 7.0316 9.4005 5.58166 1.79594 0.910919C1.39362 0.634475 1.00046 0.335837 0.642595 0.0246801Z" fill="black"/>
<path id="Vector 21" d="M0.642595 0.0246801C0.428391 0.280077 0.214187 0.535474 -1.70767e-05 0.790872C0.403315 1.11836 0.835097 1.43213 1.26789 1.72218C9.25193 6.6056 18.6085 8.74305 27.7931 8.511C28.3016 8.48793 28.8157 8.45362 29.3213 8.40778C28.8145 8.437 28.2999 8.45463 27.7917 8.46102C18.6409 8.40685 9.3576 5.91248 1.80942 0.941637C1.40582 0.651582 1.00732 0.341579 0.642595 0.0246801Z" fill="black"/>
<path id="Vector 22" d="M0.642595 0.0246801C0.428391 0.280077 0.214187 0.535474 -1.70767e-05 0.790872C0.404939 1.11972 0.837513 1.4423 1.26761 1.74376C9.1541 6.8997 18.3988 10.0992 27.7693 10.0019C28.286 9.98528 28.8079 9.95421 29.3213 9.90778C28.8067 9.93758 28.2845 9.95196 27.7685 9.95187C18.4374 9.75671 9.33657 6.24004 1.82523 0.974634C1.41988 0.670548 1.01517 0.348142 0.642595 0.0246801Z" fill="black"/>
<path id="Vector 23" d="M0.642595 0.0246801C0.428391 0.280077 0.214187 0.535474 -1.70767e-05 0.790872C0.407389 1.12177 0.84192 1.45433 1.27004 1.76764C9.0848 7.19305 18.1616 11.4242 27.742 11.4921C28.268 11.4825 28.7989 11.4549 29.3213 11.4078C28.7976 11.4383 28.2668 11.4492 27.7418 11.4421C18.2089 11.0764 9.33564 6.56911 1.84313 1.00996C1.4357 0.691415 1.02396 0.355498 0.642595 0.0246801Z" fill="black"/>
</g>
</g>
</g>
</svg>
