<svg width="31" height="13" viewBox="0 0 31 13" fill="none" xmlns="http://www.w3.org/2000/svg">
<rect width="31" height="13" fill="#1E1E1E"/>
<g id="Frame 33">
<rect width="506" height="522" transform="translate(-257.679 -119.617)" fill="white"/>
<g id="Lash volume">
<rect x="-20.1787" y="-81.1169" width="70" height="318.548" rx="4.5" stroke="#8A38F5" stroke-dasharray="10 5"/>
<g id="Property 1=3D_volume">
<path id="Vector 15" d="M0.642595 6.64592e-06C0.428391 0.255404 0.214187 0.510801 -1.70767e-05 0.766198C0.416104 1.10447 0.867802 1.41862 1.32028 1.7007C9.76775 6.29375 19.4449 7.30833 28.7656 6.99672C29.2823 6.96752 29.8079 6.92953 30.3213 6.8831C29.8067 6.9129 29.2805 6.93424 28.7636 6.94677C19.479 6.97978 9.77206 5.56878 1.83552 0.902554C1.41885 0.62382 1.00926 0.318619 0.642595 6.64592e-06Z" fill="black"/>
<path id="Vector 13" d="M1.1426 0.500007C0.928391 0.755404 0.714187 1.0108 0.499983 1.2662C0.910312 1.59957 1.35164 1.92042 1.79123 2.21595C9.90947 7.19606 19.3788 9.64954 28.7623 9.48383C29.2808 9.46306 29.8062 9.42966 30.3213 9.3831C29.805 9.41304 29.2793 9.42976 28.7611 9.43384C19.4157 9.31227 10.0311 6.51041 2.3337 1.43606C1.92267 1.14012 1.51418 0.822673 1.1426 0.500007Z" fill="black"/>
<path id="Vector 14" d="M0.642595 6.64592e-06C0.428391 0.255404 0.214187 0.510801 -1.70767e-05 0.766198C0.421836 1.10924 0.876574 1.45812 1.31815 1.78311C9.42853 7.4258 18.6937 12.1929 28.6773 12.4603C29.2247 12.4566 29.7788 12.4317 30.3213 12.3831C29.7775 12.4151 29.2237 12.4233 28.6777 12.4103C18.7523 11.8458 9.69622 6.81308 1.89292 1.0267C1.47123 0.695914 1.03859 0.343123 0.642595 6.64592e-06Z" fill="black"/>
</g>
</g>
</g>
</svg>
