<svg width="30" height="15" viewBox="0 0 30 15" fill="none" xmlns="http://www.w3.org/2000/svg">
<rect width="30" height="15" fill="#1E1E1E"/>
<g id="Frame 33">
<rect width="506" height="522" transform="translate(-257.679 -323)" fill="white"/>
<g id="Lash volume">
<rect x="-20.1787" y="-284.5" width="70" height="318.548" rx="4.5" stroke="#8A38F5" stroke-dasharray="10 5"/>
<g id="Property 1=10D_volume">
<path id="Vector 25" d="M0.642595 3.10537C0.428391 3.36077 0.214187 3.61616 -1.70767e-05 3.87156C0.404188 4.19984 0.841575 4.49345 1.28846 4.75145C9.72689 8.73427 19.0216 7.62646 27.8412 7.11715C28.3325 7.07646 28.8314 7.03311 29.3213 6.98846C28.8302 7.01649 28.3302 7.04321 27.8379 7.06726C19.052 7.30979 9.55481 7.96927 1.77683 3.93659C1.37515 3.68628 0.989746 3.40759 0.642595 3.10537Z" fill="black"/>
<path id="Vector 26" d="M0.610646 3.0807C0.417741 3.35254 0.224837 3.62439 0.031932 3.89623C0.451822 4.18416 0.904014 4.43398 1.35897 4.64591C9.89436 7.75651 18.7626 6.09332 27.3788 5.60473C27.8577 5.56596 28.3431 5.52678 28.8213 5.48846C28.3421 5.51015 27.8555 5.5327 27.3757 5.55483C18.7948 5.7717 9.66606 7.01274 1.77458 3.79164C1.36599 3.58378 0.968712 3.34525 0.610646 3.0807Z" fill="black"/>
<path id="Vector 27" d="M0.610646 3.0807C0.417741 3.35254 0.224837 3.62439 0.031932 3.89623C0.463587 4.19261 0.933315 4.43986 1.40499 4.64055C10.2831 7.33097 19.1035 4.69228 27.8581 4.11464C28.3429 4.06992 28.8368 4.02716 29.3213 3.98846C28.8358 4.01053 28.3406 4.03666 27.8543 4.06478C19.1411 4.3724 9.95123 6.59007 1.79144 3.7727C1.37394 3.57793 0.96962 3.346 0.610646 3.0807Z" fill="black"/>
<path id="Vector 28" d="M0.615038 3.08385C0.419205 3.35359 0.223373 3.62334 0.0275406 3.89308C0.464098 4.20015 0.943618 4.44607 1.42802 4.63536C10.563 6.81171 19.0616 2.84998 27.8555 2.14045C28.3405 2.08725 28.8358 2.03945 29.3213 2C28.8347 2.02282 28.3379 2.05402 27.8509 2.09066C19.1065 2.53189 10.0869 6.083 1.78843 3.75639C1.36922 3.5758 0.968341 3.35107 0.615038 3.08385Z" fill="black"/>
<path id="Vector 29" d="M0.615038 3.09539C0.419205 3.36513 0.223373 3.63487 0.0275406 3.90461C0.474052 4.21914 0.969847 4.45927 1.47077 4.63078C10.866 6.15254 18.9555 1.01512 27.846 0.153293C28.3335 0.0920416 28.8323 0.0396454 29.3213 0C28.8313 0.0230122 28.3305 0.0588305 27.8407 0.103584C19.0066 0.694103 10.2574 5.45762 1.7934 3.73725C1.3692 3.57561 0.966814 3.36161 0.615038 3.09539Z" fill="black"/>
<path id="Vector 24" d="M0.642595 3.10537C0.428391 3.36077 0.214187 3.61616 -1.70767e-05 3.87156C0.402866 4.1987 0.83695 4.49805 1.27798 4.76645C9.5387 9.0703 18.924 9.04018 27.8292 8.60883C28.3249 8.5738 28.8276 8.53341 29.3213 8.48846C28.8263 8.51679 28.3228 8.54054 27.8266 8.5589C18.9523 8.71746 9.46629 8.32293 1.78501 3.96308C1.38337 3.69986 0.99459 3.41163 0.642595 3.10537Z" fill="black"/>
<path id="Vector 20" d="M0.642595 3.10537C0.428391 3.36077 0.214187 3.61616 -1.70767e-05 3.87156C0.402598 4.19846 0.83485 4.5045 1.27123 4.78356C9.37996 9.38523 18.7852 10.4417 27.8132 10.1004C28.3146 10.0712 28.8223 10.0338 29.3213 9.98846C28.8211 10.0172 28.3127 10.0379 27.8111 10.0504C18.8142 10.1123 9.4005 8.66235 1.79594 3.99161C1.39362 3.71516 1.00046 3.41653 0.642595 3.10537Z" fill="black"/>
<path id="Vector 21" d="M0.642595 3.10537C0.428391 3.36077 0.214187 3.61616 -1.70767e-05 3.87156C0.403315 4.19905 0.835097 4.51282 1.26789 4.80287C9.25193 9.68629 18.6085 11.8237 27.7931 11.5917C28.3016 11.5686 28.8157 11.5343 29.3213 11.4885C28.8145 11.5177 28.2999 11.5353 27.7917 11.5417C18.6409 11.4875 9.3576 8.99317 1.80942 4.02233C1.40582 3.73227 1.00732 3.42227 0.642595 3.10537Z" fill="black"/>
<path id="Vector 22" d="M0.642595 3.10537C0.428391 3.36077 0.214187 3.61616 -1.70767e-05 3.87156C0.404939 4.20041 0.837513 4.52299 1.26761 4.82445C9.1541 9.98039 18.3988 13.1799 27.7693 13.0825C28.286 13.066 28.8079 13.0349 29.3213 12.9885C28.8067 13.0183 28.2845 13.0326 27.7685 13.0326C18.4374 12.8374 9.33657 9.32073 1.82523 4.05532C1.41988 3.75124 1.01517 3.42883 0.642595 3.10537Z" fill="black"/>
<path id="Vector 23" d="M0.642595 3.10537C0.428391 3.36077 0.214187 3.61616 -1.70767e-05 3.87156C0.407389 4.20246 0.84192 4.53502 1.27004 4.84833C9.0848 10.2737 18.1616 14.5049 27.742 14.5728C28.268 14.5632 28.7989 14.5356 29.3213 14.4885C28.7976 14.519 28.2668 14.5299 27.7418 14.5228C18.2089 14.1571 9.33564 9.6498 1.84313 4.09065C1.4357 3.7721 1.02396 3.43619 0.642595 3.10537Z" fill="black"/>
</g>
</g>
</g>
</svg>
