<svg width="30" height="13" viewBox="0 0 30 13" fill="none" xmlns="http://www.w3.org/2000/svg">
<rect width="30" height="13" fill="#1E1E1E"/>
<g id="Frame 33">
<rect width="506" height="522" transform="translate(-257.679 -57.6169)" fill="white"/>
<g id="Lash volume">
<rect x="-20.1787" y="-19.1169" width="70" height="318.548" rx="4.5" stroke="#8A38F5" stroke-dasharray="10 5"/>
<g id="Property 1=Classic_volume">
<path id="Vector 10" d="M0.642595 -9.83477e-07C0.428391 0.255396 0.214187 0.510793 -1.70767e-05 0.766191C0.40944 1.09881 0.845878 1.43869 1.27302 1.76014C9.05322 7.36615 17.991 12.2637 27.7219 12.4605C28.2547 12.4559 28.7922 12.4307 29.3213 12.3831C28.791 12.4141 28.2537 12.4225 27.7222 12.4105C18.0454 11.913 9.34506 6.76666 1.85611 1.01014C1.44716 0.681716 1.03032 0.336146 0.642595 -9.83477e-07Z" fill="black"/>
</g>
</g>
</g>
</svg>
