<svg width="30" height="13" viewBox="0 0 30 13" fill="none" xmlns="http://www.w3.org/2000/svg">
<rect width="30" height="13" fill="#1E1E1E"/>
<g id="Frame 33">
<rect width="506" height="522" transform="translate(-256.679 -292.512)" fill="white"/>
<g id="Lash volume">
<rect x="-19.1787" y="-254.012" width="70" height="318.548" rx="4.5" stroke="#8A38F5" stroke-dasharray="10 5"/>
<g id="Property 1=9D_volume">
<path id="Vector 25" d="M0.642595 1.10537C0.428391 1.36077 0.214187 1.61616 -1.70767e-05 1.87156C0.404188 2.19984 0.841575 2.49345 1.28846 2.75145C9.72689 6.73427 19.0216 5.62646 27.8412 5.11715C28.3325 5.07646 28.8314 5.03311 29.3213 4.98846C28.8302 5.01649 28.3302 5.04321 27.8379 5.06726C19.052 5.30979 9.55481 5.96927 1.77683 1.93659C1.37515 1.68628 0.989746 1.40759 0.642595 1.10537Z" fill="black"/>
<path id="Vector 26" d="M0.610646 1.0807C0.417741 1.35254 0.224837 1.62439 0.031932 1.89623C0.451822 2.18416 0.904014 2.43398 1.35897 2.64591C9.89436 5.75651 18.7626 4.09332 27.3788 3.60473C27.8577 3.56596 28.3431 3.52678 28.8213 3.48846C28.3421 3.51015 27.8555 3.5327 27.3757 3.55483C18.7948 3.7717 9.66606 5.01274 1.77458 1.79164C1.36599 1.58378 0.968712 1.34525 0.610646 1.0807Z" fill="black"/>
<path id="Vector 27" d="M0.610646 1.0807C0.417741 1.35254 0.224837 1.62439 0.031932 1.89623C0.463587 2.19261 0.933315 2.43986 1.40499 2.64055C10.2831 5.33097 19.1035 2.69228 27.8581 2.11464C28.3429 2.06992 28.8368 2.02716 29.3213 1.98846C28.8358 2.01053 28.3406 2.03666 27.8543 2.06478C19.1411 2.3724 9.95123 4.59007 1.79144 1.7727C1.37394 1.57793 0.96962 1.346 0.610646 1.0807Z" fill="black"/>
<path id="Vector 28" d="M0.615038 1.08385C0.419205 1.35359 0.223373 1.62334 0.0275406 1.89308C0.464098 2.20015 0.943618 2.44607 1.42802 2.63536C10.563 4.81171 19.0616 0.84998 27.8555 0.14045C28.3405 0.0872518 28.8358 0.0394487 29.3213 0C28.8347 0.0228159 28.3379 0.0540209 27.8509 0.0906621C19.1065 0.531893 10.0869 4.083 1.78843 1.75639C1.36922 1.5758 0.968341 1.35107 0.615038 1.08385Z" fill="black"/>
<path id="Vector 24" d="M0.642595 1.10537C0.428391 1.36077 0.214187 1.61616 -1.70767e-05 1.87156C0.402866 2.1987 0.83695 2.49805 1.27798 2.76645C9.5387 7.0703 18.924 7.04018 27.8292 6.60883C28.3249 6.5738 28.8276 6.53341 29.3213 6.48846C28.8263 6.51679 28.3228 6.54054 27.8266 6.5589C18.9523 6.71746 9.46629 6.32293 1.78501 1.96308C1.38337 1.69986 0.99459 1.41163 0.642595 1.10537Z" fill="black"/>
<path id="Vector 20" d="M0.642595 1.10537C0.428391 1.36077 0.214187 1.61616 -1.70767e-05 1.87156C0.402598 2.19846 0.83485 2.5045 1.27123 2.78356C9.37996 7.38523 18.7852 8.44171 27.8132 8.1004C28.3146 8.07121 28.8223 8.03381 29.3213 7.98846C28.8211 8.01719 28.3127 8.03793 27.8111 8.05044C18.8142 8.11229 9.4005 6.66235 1.79594 1.99161C1.39362 1.71516 1.00046 1.41653 0.642595 1.10537Z" fill="black"/>
<path id="Vector 21" d="M0.642595 1.10537C0.428391 1.36077 0.214187 1.61616 -1.70767e-05 1.87156C0.403315 2.19905 0.835097 2.51282 1.26789 2.80287C9.25193 7.68629 18.6085 9.82374 27.7931 9.59169C28.3016 9.56862 28.8157 9.53431 29.3213 9.48846C28.8145 9.51768 28.2999 9.53532 27.7917 9.54171C18.6409 9.48754 9.3576 6.99317 1.80942 2.02233C1.40582 1.73227 1.00732 1.42227 0.642595 1.10537Z" fill="black"/>
<path id="Vector 22" d="M0.642595 1.10537C0.428391 1.36077 0.214187 1.61616 -1.70767e-05 1.87156C0.404939 2.20041 0.837513 2.52299 1.26761 2.82445C9.1541 7.98039 18.3988 11.1799 27.7693 11.0825C28.286 11.066 28.8079 11.0349 29.3213 10.9885C28.8067 11.0183 28.2845 11.0326 27.7685 11.0326C18.4374 10.8374 9.33657 7.32073 1.82523 2.05532C1.41988 1.75124 1.01517 1.42883 0.642595 1.10537Z" fill="black"/>
<path id="Vector 23" d="M0.642595 1.10537C0.428391 1.36077 0.214187 1.61616 -1.70767e-05 1.87156C0.407389 2.20246 0.84192 2.53502 1.27004 2.84833C9.0848 8.27374 18.1616 12.5049 27.742 12.5728C28.268 12.5632 28.7989 12.5356 29.3213 12.4885C28.7976 12.519 28.2668 12.5299 27.7418 12.5228C18.2089 12.1571 9.33564 7.6498 1.84313 2.09065C1.4357 1.7721 1.02396 1.43619 0.642595 1.10537Z" fill="black"/>
</g>
</g>
</g>
</svg>
