<svg width="30" height="12" viewBox="0 0 30 12" fill="none" xmlns="http://www.w3.org/2000/svg">
<rect width="30" height="12" fill="#1E1E1E"/>
<g id="Frame 33">
<rect width="506" height="522" transform="translate(-257.679 -209.617)" fill="white"/>
<g id="Lash volume">
<rect x="-20.1787" y="-171.117" width="70" height="318.548" rx="4.5" stroke="#8A38F5" stroke-dasharray="10 5"/>
<g id="Property 1=6D_volume">
<path id="Vector 25" d="M0.642595 6.64592e-06C0.428391 0.255404 0.214187 0.510801 -1.70767e-05 0.766198C0.404875 1.09506 0.843708 1.38696 1.29285 1.64153C9.7957 5.51099 19.0447 4.04848 27.8443 3.51457C28.3344 3.47201 28.8324 3.42768 29.3213 3.3831C28.8312 3.41106 28.332 3.43877 27.8408 3.46469C19.0763 3.73359 9.58916 4.74191 1.77474 0.822825C1.37286 0.576763 0.98836 0.301071 0.642595 6.64592e-06Z" fill="black"/>
<path id="Vector 24" d="M0.642595 6.64592e-06C0.428391 0.255404 0.214187 0.510801 -1.70767e-05 0.766198C0.403186 1.09361 0.838203 1.39095 1.28104 1.65586C9.59827 5.85562 18.9612 5.46456 27.8337 5.00625C28.3278 4.96932 28.829 4.92794 29.3213 4.8831C28.8278 4.91132 28.3256 4.93606 27.8308 4.95633C18.99 5.14395 9.49332 5.10154 1.78197 0.848666C1.3804 0.589783 0.992862 0.304823 0.642595 6.64592e-06Z" fill="black"/>
<path id="Vector 20" d="M0.642595 6.64592e-06C0.428391 0.255404 0.214187 0.510801 -1.70767e-05 0.766198C0.402574 1.09308 0.83528 1.39678 1.27309 1.67225C9.42948 6.17679 18.8359 6.871 27.819 6.49787C28.3183 6.46671 28.8242 6.4283 29.3213 6.3831C28.823 6.41168 28.3164 6.43343 27.8167 6.44792C18.8644 6.54384 9.41987 5.44508 1.792 0.876498C1.38998 0.604502 0.998388 0.309436 0.642595 6.64592e-06Z" fill="black"/>
<path id="Vector 21" d="M0.642595 6.64592e-06C0.428391 0.255404 0.214187 0.510801 -1.70767e-05 0.766198C0.402971 1.0934 0.834765 1.40448 1.26865 1.69082C9.2912 6.48168 18.6713 8.26028 27.8002 7.98927C28.3062 7.96412 28.8181 7.92877 29.3213 7.8831C28.8168 7.91215 28.3044 7.93083 27.7986 7.9393C18.7023 7.92632 9.3694 5.77815 1.80465 0.906474C1.40154 0.621002 1.00492 0.314899 0.642595 6.64592e-06Z" fill="black"/>
<path id="Vector 22" d="M0.642595 6.64592e-06C0.428391 0.255404 0.214187 0.510801 -1.70767e-05 0.766198C0.411389 1.10047 0.853279 1.4274 1.291 1.73063C9.34637 6.89607 18.7396 10.0463 28.2463 9.9775C28.7704 9.9612 29.301 9.93006 29.8213 9.8831C29.2997 9.91343 28.769 9.92788 28.2455 9.9275C18.7809 9.70523 9.51751 6.23199 1.84423 0.95834C1.43214 0.652991 1.01946 0.327093 0.642595 6.64592e-06Z" fill="black"/>
<path id="Vector 23" d="M0.642595 6.64592e-06C0.428391 0.255404 0.214187 0.510801 -1.70767e-05 0.766198C0.413679 1.10238 0.857376 1.4394 1.29289 1.75452C9.2745 7.19542 18.5089 11.3663 28.2194 11.4675C28.7527 11.4583 29.2921 11.4307 29.8213 11.3831C29.2908 11.4141 28.7515 11.425 28.2193 11.4175C18.5587 11.0202 9.51327 6.56553 1.86173 0.993651C1.44778 0.673855 1.02816 0.334372 0.642595 6.64592e-06Z" fill="black"/>
</g>
</g>
</g>
</svg>
