<svg width="30" height="12" viewBox="0 0 30 12" fill="none" xmlns="http://www.w3.org/2000/svg">
<rect width="30" height="12" fill="#1E1E1E"/>
<g id="Frame 33">
<rect width="506" height="522" transform="translate(-257.679 -147.617)" fill="white"/>
<g id="Lash volume">
<rect x="-20.1787" y="-109.117" width="70" height="318.548" rx="4.5" stroke="#8A38F5" stroke-dasharray="10 5"/>
<g id="Property 1=4D_volume">
<path id="Vector 19" d="M0.642595 6.64592e-06C0.428391 0.255404 0.214187 0.510801 -1.70767e-05 0.766198C0.411164 1.10036 0.858546 1.39771 1.31389 1.65692C9.91721 5.62259 19.3463 4.524 28.317 4.01318C28.816 3.97218 29.3241 3.9283 29.8213 3.8831C29.3229 3.91168 28.8137 3.93893 28.3138 3.96329C19.3785 4.20686 9.74178 4.8593 1.79712 0.838995C1.38786 0.587706 0.994202 0.306009 0.642595 6.64592e-06Z" fill="black"/>
<path id="Vector 16" d="M0.642595 6.64592e-06C0.428391 0.255404 0.214187 0.510801 -1.70767e-05 0.766198C0.40936 1.09879 0.851765 1.40653 1.29772 1.68353C9.62342 6.18173 19.1645 6.85946 28.2951 6.49881C28.8021 6.46759 29.317 6.42884 29.8213 6.3831C29.3158 6.41222 28.8001 6.43431 28.2929 6.44886C19.1956 6.53262 9.6061 5.44938 1.81184 0.884663C1.40256 0.611498 1.00282 0.313188 0.642595 6.64592e-06Z" fill="black"/>
<path id="Vector 17" d="M0.642595 6.64592e-06C0.428391 0.255404 0.214187 0.510801 -1.70767e-05 0.766198C0.410312 1.09957 0.851644 1.42042 1.29123 1.71595C9.40947 6.69606 18.8788 9.14954 28.2623 8.98383C28.7808 8.96306 29.3062 8.92966 29.8213 8.8831C29.305 8.91304 28.7793 8.92976 28.2611 8.93384C18.9157 8.81227 9.5311 6.01041 1.8337 0.936062C1.42267 0.640123 1.01418 0.322673 0.642595 6.64592e-06Z" fill="black"/>
<path id="Vector 18" d="M0.642595 6.64592e-06C0.428391 0.255404 0.214187 0.510801 -1.70767e-05 0.766198C0.413679 1.10238 0.857376 1.4394 1.29289 1.75452C9.2745 7.19542 18.5089 11.3663 28.2194 11.4675C28.7527 11.4583 29.2921 11.4307 29.8213 11.3831C29.2908 11.4141 28.7515 11.425 28.2193 11.4175C18.5587 11.0202 9.51327 6.56553 1.86173 0.993651C1.44778 0.673855 1.02816 0.334372 0.642595 6.64592e-06Z" fill="black"/>
</g>
</g>
</g>
</svg>
