<svg width="18" height="18" viewBox="0 0 18 18" fill="none" xmlns="http://www.w3.org/2000/svg">
<path d="M14.0197 1.88708H12.6716V1.61746C12.6716 1.40293 12.5864 1.1972 12.4347 1.0455C12.283 0.893813 12.0772 0.808594 11.8627 0.808594C11.6482 0.808594 11.4425 0.893813 11.2908 1.0455C11.1391 1.1972 11.0539 1.40293 11.0539 1.61746V1.88708H6.20066V1.61746C6.20066 1.40293 6.11544 1.1972 5.96375 1.0455C5.81206 0.893813 5.60632 0.808594 5.3918 0.808594C5.17727 0.808594 4.97154 0.893813 4.81985 1.0455C4.66815 1.1972 4.58293 1.40293 4.58293 1.61746V1.88708H3.23483C2.87729 1.88708 2.53439 2.02911 2.28157 2.28193C2.02875 2.53475 1.88672 2.87765 1.88672 3.23519V14.0201C1.88672 14.3776 2.02875 14.7205 2.28157 14.9733C2.53439 15.2261 2.87729 15.3682 3.23483 15.3682H14.0197C14.3772 15.3682 14.7201 15.2261 14.9729 14.9733C15.2258 14.7205 15.3678 14.3776 15.3678 14.0201V3.23519C15.3678 2.87765 15.2258 2.53475 14.9729 2.28193C14.7201 2.02911 14.3772 1.88708 14.0197 1.88708ZM4.58293 3.50481C4.58293 3.71933 4.66815 3.92507 4.81985 4.07676C4.97154 4.22845 5.17727 4.31367 5.3918 4.31367C5.60632 4.31367 5.81206 4.22845 5.96375 4.07676C6.11544 3.92507 6.20066 3.71933 6.20066 3.50481H11.0539C11.0539 3.71933 11.1391 3.92507 11.2908 4.07676C11.4425 4.22845 11.6482 4.31367 11.8627 4.31367C12.0772 4.31367 12.283 4.22845 12.4347 4.07676C12.5864 3.92507 12.6716 3.71933 12.6716 3.50481H13.7501V5.12254H3.50445V3.50481H4.58293ZM3.50445 13.7504V6.74027H13.7501V13.7504H3.50445Z" fill="#98A2B3"/>
</svg>
