<svg width="16" height="16" viewBox="0 0 16 16" fill="none" xmlns="http://www.w3.org/2000/svg">
<g clip-path="url(#clip0_335_1402)">
<path d="M8.09791 4.59582C7.46615 4.59582 6.48852 3.87743 5.45891 3.90275C4.09943 3.92075 2.85324 4.69112 2.15284 5.91132C0.742046 8.36039 1.78898 11.9777 3.16512 13.9682C3.8402 14.9372 4.63656 16.0275 5.69216 15.9935C6.7051 15.9502 7.08496 15.3357 8.31449 15.3357C9.53469 15.3357 9.88056 15.9935 10.9535 15.9675C12.0444 15.9502 12.7368 14.9812 13.4032 14.0029C14.1736 12.878 14.4935 11.7871 14.5108 11.7271C14.4848 11.7184 12.3903 10.9134 12.3649 8.49034C12.3476 6.46444 14.0176 5.49548 14.0956 5.45216C13.1433 4.05936 11.6812 3.90342 11.1614 3.87743C9.81992 3.77347 8.71234 4.5705 8.08924 4.5705L8.09791 4.59582ZM11.404 1.61896C11.9571 0.95188 12.3036 0.026233 12.2083 -0.899414C11.4206 -0.864761 10.469 -0.371615 9.91455 0.27747C9.4214 0.848586 8.98823 1.76624 9.10952 2.64857C9.99252 2.71787 10.8755 2.2154 11.4033 1.61896H11.404Z" fill="#101828"/>
</g>
<defs>
<clipPath id="clip0_335_1402">
<rect width="15.9939" height="15.9939" fill="white"/>
</clipPath>
</defs>
</svg>
