<svg width="16" height="16" viewBox="0 0 16 16" fill="none" xmlns="http://www.w3.org/2000/svg">
<path d="M11.4924 3.04934V1.99937C11.4924 1.73432 11.3871 1.48013 11.1997 1.29271C11.0123 1.10529 10.7581 1 10.493 1H5.49617C5.23112 1 4.97693 1.10529 4.78951 1.29271C4.60209 1.48013 4.4968 1.73432 4.4968 1.99937V3.04934C3.93284 3.16506 3.42606 3.47175 3.06194 3.91768C2.69782 4.36361 2.49866 4.92148 2.49805 5.49719V12.4928C2.49805 13.1554 2.76127 13.7909 3.22982 14.2595C3.69837 14.728 4.33386 14.9913 4.99648 14.9913H10.9927C11.6554 14.9913 12.2908 14.728 12.7594 14.2595C13.2279 13.7909 13.4912 13.1554 13.4912 12.4928V5.49719C13.4906 4.92148 13.2914 4.36361 12.9273 3.91768C12.5632 3.47175 12.0564 3.16506 11.4924 3.04934ZM10.493 2.99875H9.49367V1.99937H10.493V2.99875ZM7.49492 2.99875V1.99937H8.4943V2.99875H7.49492ZM6.49555 1.99937V2.99875H5.49617V1.99937H6.49555ZM12.4918 12.4928C12.4918 12.8904 12.3339 13.2717 12.0527 13.5528C11.7716 13.8339 11.3903 13.9919 10.9927 13.9919H4.99648C4.59891 13.9919 4.21762 13.8339 3.93649 13.5528C3.65536 13.2717 3.49742 12.8904 3.49742 12.4928V5.49719C3.49742 5.09961 3.65536 4.71832 3.93649 4.43719C4.21762 4.15606 4.59891 3.99813 4.99648 3.99813H10.9927C11.3903 3.99813 11.7716 4.15606 12.0527 4.43719C12.3339 4.71832 12.4918 5.09961 12.4918 5.49719V12.4928ZM9.99336 9.99438C9.99336 10.392 9.83542 10.7732 9.55429 11.0544C9.27317 11.3355 8.89187 11.4934 8.4943 11.4934V11.9931C8.4943 12.1257 8.44165 12.2527 8.34794 12.3465C8.25423 12.4402 8.12713 12.4928 7.99461 12.4928C7.86208 12.4928 7.73499 12.4402 7.64128 12.3465C7.54757 12.2527 7.49492 12.1257 7.49492 11.9931V11.4934H6.99523C6.86271 11.4934 6.73561 11.4408 6.6419 11.3471C6.54819 11.2534 6.49555 11.1263 6.49555 10.9937C6.49555 10.8612 6.54819 10.7341 6.6419 10.6404C6.73561 10.5467 6.86271 10.4941 6.99523 10.4941H8.4943C8.62682 10.4941 8.75392 10.4414 8.84763 10.3477C8.94134 10.254 8.99398 10.1269 8.99398 9.99438C8.99398 9.86185 8.94134 9.73475 8.84763 9.64104C8.75392 9.54733 8.62682 9.49469 8.4943 9.49469H7.49492C7.09735 9.49469 6.71605 9.33675 6.43492 9.05562C6.1538 8.77449 5.99586 8.3932 5.99586 7.99563C5.99586 7.59805 6.1538 7.21676 6.43492 6.93563C6.71605 6.6545 7.09735 6.49656 7.49492 6.49656V5.99687C7.49492 5.86435 7.54757 5.73725 7.64128 5.64354C7.73499 5.54983 7.86208 5.49719 7.99461 5.49719C8.12713 5.49719 8.25423 5.54983 8.34794 5.64354C8.44165 5.73725 8.4943 5.86435 8.4943 5.99687V6.49656H8.99398C9.12651 6.49656 9.25361 6.54921 9.34732 6.64292C9.44103 6.73663 9.49367 6.86372 9.49367 6.99625C9.49367 7.12878 9.44103 7.25587 9.34732 7.34958C9.25361 7.44329 9.12651 7.49594 8.99398 7.49594H7.49492C7.3624 7.49594 7.2353 7.54858 7.14159 7.64229C7.04788 7.736 6.99523 7.8631 6.99523 7.99563C6.99523 8.12815 7.04788 8.25525 7.14159 8.34896C7.2353 8.44267 7.3624 8.49531 7.49492 8.49531H8.4943C8.89187 8.49531 9.27317 8.65325 9.55429 8.93438C9.83542 9.21551 9.99336 9.5968 9.99336 9.99438Z" fill="#7A48DB"/>
</svg>
