<svg width="20" height="20" viewBox="0 0 20 20" fill="none" xmlns="http://www.w3.org/2000/svg">
<path d="M14.9978 6.66543C16.3783 6.66543 17.4975 5.54627 17.4975 4.16572C17.4975 2.78517 16.3783 1.66602 14.9978 1.66602C13.6172 1.66602 12.498 2.78517 12.498 4.16572C12.498 5.54627 13.6172 6.66543 14.9978 6.66543Z" stroke="#7A48DB" stroke-width="1.66647" stroke-linecap="round" stroke-linejoin="round"/>
<path d="M4.99971 12.4994C6.38026 12.4994 7.49941 11.3803 7.49941 9.99971C7.49941 8.61916 6.38026 7.5 4.99971 7.5C3.61916 7.5 2.5 8.61916 2.5 9.99971C2.5 11.3803 3.61916 12.4994 4.99971 12.4994Z" stroke="#7A48DB" stroke-width="1.66647" stroke-linecap="round" stroke-linejoin="round"/>
<path d="M14.9978 18.3314C16.3783 18.3314 17.4975 17.2123 17.4975 15.8317C17.4975 14.4512 16.3783 13.332 14.9978 13.332C13.6172 13.332 12.498 14.4512 12.498 15.8317C12.498 17.2123 13.6172 18.3314 14.9978 18.3314Z" stroke="#7A48DB" stroke-width="1.66647" stroke-linecap="round" stroke-linejoin="round"/>
<path d="M7.1582 11.2578L12.8492 14.5741" stroke="#7A48DB" stroke-width="1.66647" stroke-linecap="round" stroke-linejoin="round"/>
<path d="M12.8409 5.42383L7.1582 8.74011" stroke="#7A48DB" stroke-width="1.66647" stroke-linecap="round" stroke-linejoin="round"/>
</svg>
