<svg width="16" height="16" viewBox="0 0 16 16" fill="none" xmlns="http://www.w3.org/2000/svg">
<g clip-path="url(#clip0_539_3611)">
<path d="M11.3282 1.33203H4.66409C2.82385 1.33203 1.33203 2.82385 1.33203 4.66409V11.3282C1.33203 13.1685 2.82385 14.6603 4.66409 14.6603H11.3282C13.1685 14.6603 14.6603 13.1685 14.6603 11.3282V4.66409C14.6603 2.82385 13.1685 1.33203 11.3282 1.33203Z" stroke="#E60076" stroke-width="1.33283" stroke-linecap="round" stroke-linejoin="round"/>
<path d="M10.6618 7.57738C10.7441 8.132 10.6494 8.69843 10.3911 9.19611C10.1329 9.69378 9.7243 10.0974 9.22348 10.3494C8.72266 10.6015 8.1551 10.6893 7.60154 10.6002C7.04797 10.5111 6.53659 10.2497 6.14013 9.85329C5.74367 9.45682 5.48231 8.94544 5.39323 8.39188C5.30416 7.83832 5.3919 7.27076 5.64398 6.76994C5.89605 6.26912 6.29963 5.86053 6.79731 5.60229C7.29498 5.34406 7.86142 5.24933 8.41604 5.33157C8.98177 5.41546 9.50552 5.67908 9.90993 6.08349C10.3143 6.4879 10.578 7.01165 10.6618 7.57738Z" stroke="#E60076" stroke-width="1.33283" stroke-linecap="round" stroke-linejoin="round"/>
<path d="M11.6621 4.33203H11.6688" stroke="#E60076" stroke-width="1.33283" stroke-linecap="round" stroke-linejoin="round"/>
</g>
<defs>
<clipPath id="clip0_539_3611">
<rect width="15.9939" height="15.9939" fill="white"/>
</clipPath>
</defs>
</svg>
