<svg width="18" height="18" viewBox="0 0 18 18" fill="none" xmlns="http://www.w3.org/2000/svg">
<g clip-path="url(#clip0_637_4607)">
<path d="M6.74723 12.7441H5.24802C4.25398 12.7441 3.30066 12.3492 2.59777 11.6463C1.89488 10.9434 1.5 9.9901 1.5 8.99607C1.5 8.00203 1.89488 7.04871 2.59777 6.34582C3.30066 5.64293 4.25398 5.24805 5.24802 5.24805H6.74723" stroke="#7A48DB" stroke-width="1.49921" stroke-linecap="round" stroke-linejoin="round"/>
<path d="M11.2441 5.24805H12.7433C13.7374 5.24805 14.6907 5.64293 15.3936 6.34582C16.0965 7.04871 16.4914 8.00203 16.4914 8.99607C16.4914 9.9901 16.0965 10.9434 15.3936 11.6463C14.6907 12.3492 13.7374 12.7441 12.7433 12.7441H11.2441" stroke="#7A48DB" stroke-width="1.49921" stroke-linecap="round" stroke-linejoin="round"/>
<path d="M5.99609 8.99609H11.9929" stroke="#7A48DB" stroke-width="1.49921" stroke-linecap="round" stroke-linejoin="round"/>
</g>
<defs>
<clipPath id="clip0_637_4607">
<rect width="17.9905" height="17.9905" fill="white"/>
</clipPath>
</defs>
</svg>
