<svg width="16" height="16" viewBox="0 0 16 16" fill="none" xmlns="http://www.w3.org/2000/svg">
<path d="M8.14432 1.33301H7.8511C7.49761 1.33301 7.1586 1.47343 6.90865 1.72338C6.6587 1.97334 6.51827 2.31235 6.51827 2.66583V2.78579C6.51803 3.01951 6.45634 3.24907 6.33937 3.45142C6.2224 3.65378 6.05428 3.82182 5.85186 3.93868L5.5653 4.10528C5.36269 4.22226 5.13285 4.28385 4.89889 4.28385C4.66493 4.28385 4.43509 4.22226 4.23248 4.10528L4.13252 4.05197C3.82668 3.87555 3.46333 3.82769 3.12224 3.91889C2.78114 4.0101 2.49018 4.23293 2.31321 4.53845L2.1666 4.79169C1.99018 5.09753 1.94231 5.46088 2.03352 5.80197C2.12473 6.14306 2.34755 6.43403 2.65308 6.611L2.75304 6.67764C2.95448 6.79393 3.12198 6.96092 3.23889 7.16201C3.3558 7.36309 3.41805 7.59127 3.41946 7.82387V8.16374C3.42039 8.39859 3.35925 8.62953 3.24222 8.83315C3.12519 9.03678 2.95644 9.20587 2.75304 9.32329L2.65308 9.38327C2.34755 9.56024 2.12473 9.8512 2.03352 10.1923C1.94231 10.5334 1.99018 10.8967 2.1666 11.2026L2.31321 11.4558C2.49018 11.7613 2.78114 11.9842 3.12224 12.0754C3.46333 12.1666 3.82668 12.1187 4.13252 11.9423L4.23248 11.889C4.43509 11.772 4.66493 11.7104 4.89889 11.7104C5.13285 11.7104 5.36269 11.772 5.5653 11.889L5.85186 12.0556C6.05428 12.1724 6.2224 12.3405 6.33937 12.5428C6.45634 12.7452 6.51803 12.9748 6.51827 13.2085V13.3284C6.51827 13.6819 6.6587 14.0209 6.90865 14.2709C7.1586 14.5208 7.49761 14.6613 7.8511 14.6613H8.14432C8.49781 14.6613 8.83682 14.5208 9.08677 14.2709C9.33672 14.0209 9.47715 13.6819 9.47715 13.3284V13.2085C9.47739 12.9748 9.53908 12.7452 9.65605 12.5428C9.77302 12.3405 9.94114 12.1724 10.1436 12.0556L10.4301 11.889C10.6327 11.772 10.8626 11.7104 11.0965 11.7104C11.3305 11.7104 11.5603 11.772 11.7629 11.889L11.8629 11.9423C12.1687 12.1187 12.5321 12.1666 12.8732 12.0754C13.2143 11.9842 13.5052 11.7613 13.6822 11.4558L13.8288 11.1959C14.0052 10.8901 14.0531 10.5267 13.9619 10.1856C13.8707 9.84454 13.6479 9.55357 13.3423 9.37661L13.2424 9.32329C13.039 9.20587 12.8702 9.03678 12.7532 8.83315C12.6362 8.62953 12.575 8.39859 12.576 8.16374V7.83053C12.575 7.59567 12.6362 7.36474 12.7532 7.16111C12.8702 6.95749 13.039 6.7884 13.2424 6.67097L13.3423 6.611C13.6479 6.43403 13.8707 6.14306 13.9619 5.80197C14.0531 5.46088 14.0052 5.09753 13.8288 4.79169L13.6822 4.53845C13.5052 4.23293 13.2143 4.0101 12.8732 3.91889C12.5321 3.82769 12.1687 3.87555 11.8629 4.05197L11.7629 4.10528C11.5603 4.22226 11.3305 4.28385 11.0965 4.28385C10.8626 4.28385 10.6327 4.22226 10.4301 4.10528L10.1436 3.93868C9.94114 3.82182 9.77302 3.65378 9.65605 3.45142C9.53908 3.24907 9.47739 3.01951 9.47715 2.78579V2.66583C9.47715 2.31235 9.33672 1.97334 9.08677 1.72338C8.83682 1.47343 8.49781 1.33301 8.14432 1.33301Z" stroke="#7A48DB" stroke-width="1.33283" stroke-linecap="round" stroke-linejoin="round"/>
<path d="M7.99728 9.99652C9.10143 9.99652 9.99652 9.10143 9.99652 7.99728C9.99652 6.89314 9.10143 5.99805 7.99728 5.99805C6.89314 5.99805 5.99805 6.89314 5.99805 7.99728C5.99805 9.10143 6.89314 9.99652 7.99728 9.99652Z" stroke="#7A48DB" stroke-width="1.33283" stroke-linecap="round" stroke-linejoin="round"/>
</svg>
