<svg width="16" height="16" viewBox="0 0 16 16" fill="none" xmlns="http://www.w3.org/2000/svg">
<g clip-path="url(#clip0_335_3965)">
<path d="M10.6618 13.9946V12.6617C10.6618 11.9548 10.381 11.2768 9.88106 10.7768C9.38115 10.2769 8.70313 9.99609 7.99616 9.99609H3.99768C3.29071 9.99609 2.61269 10.2769 2.11278 10.7768C1.61288 11.2768 1.33203 11.9548 1.33203 12.6617V13.9946" stroke="#7444CF" stroke-width="1.33283" stroke-linecap="round" stroke-linejoin="round"/>
<path d="M5.99768 7.33032C7.46988 7.33032 8.66333 6.13687 8.66333 4.66467C8.66333 3.19248 7.46988 1.99902 5.99768 1.99902C4.52548 1.99902 3.33203 3.19248 3.33203 4.66467C3.33203 6.13687 4.52548 7.33032 5.99768 7.33032Z" stroke="#7444CF" stroke-width="1.33283" stroke-linecap="round" stroke-linejoin="round"/>
<path d="M14.6613 13.9948V12.662C14.6609 12.0714 14.4643 11.4976 14.1025 11.0309C13.7406 10.5641 13.234 10.2307 12.6621 10.083" stroke="#7444CF" stroke-width="1.33283" stroke-linecap="round" stroke-linejoin="round"/>
<path d="M10.6621 2.08594C11.2355 2.23275 11.7437 2.56622 12.1067 3.03378C12.4696 3.50134 12.6666 4.0764 12.6666 4.66829C12.6666 5.26017 12.4696 5.83523 12.1067 6.30279C11.7437 6.77035 11.2355 7.10382 10.6621 7.25063" stroke="#7444CF" stroke-width="1.33283" stroke-linecap="round" stroke-linejoin="round"/>
</g>
<defs>
<clipPath id="clip0_335_3965">
<rect width="15.9939" height="15.9939" fill="white"/>
</clipPath>
</defs>
</svg>
