<svg width="18" height="18" viewBox="0 0 18 18" fill="none" xmlns="http://www.w3.org/2000/svg">
<g clip-path="url(#clip0_617_6984)">
<path d="M6.74723 12.7431H5.24802C4.25398 12.7431 3.30066 12.3482 2.59777 11.6453C1.89488 10.9425 1.5 9.98913 1.5 8.99509C1.5 8.00105 1.89488 7.04773 2.59777 6.34484C3.30066 5.64195 4.25398 5.24707 5.24802 5.24707H6.74723" stroke="#7A48DB" stroke-width="1.49921" stroke-linecap="round" stroke-linejoin="round"/>
<path d="M11.2441 5.24707H12.7433C13.7374 5.24707 14.6907 5.64195 15.3936 6.34484C16.0965 7.04773 16.4914 8.00105 16.4914 8.99509C16.4914 9.98913 16.0965 10.9425 15.3936 11.6453C14.6907 12.3482 13.7374 12.7431 12.7433 12.7431H11.2441" stroke="#7A48DB" stroke-width="1.49921" stroke-linecap="round" stroke-linejoin="round"/>
<path d="M5.99609 8.99512H11.9929" stroke="#7A48DB" stroke-width="1.49921" stroke-linecap="round" stroke-linejoin="round"/>
</g>
<defs>
<clipPath id="clip0_617_6984">
<rect width="17.9905" height="17.9905" fill="white"/>
</clipPath>
</defs>
</svg>
