<svg width="16" height="16" viewBox="0 0 16 16" fill="none" xmlns="http://www.w3.org/2000/svg">
<path d="M11.9957 7.3309V3.99884C11.9957 3.64535 11.8553 3.30634 11.6054 3.05639C11.3554 2.80644 11.0164 2.66602 10.6629 2.66602C10.3094 2.66602 9.97041 2.80644 9.72045 3.05639C9.4705 3.30634 9.33008 3.64535 9.33008 3.99884" stroke="#7444CF" stroke-width="1.33283" stroke-linecap="round" stroke-linejoin="round"/>
<path d="M9.32971 6.66431V2.66583C9.32971 2.31235 9.18929 1.97334 8.93934 1.72338C8.68938 1.47343 8.35037 1.33301 7.99689 1.33301C7.6434 1.33301 7.30439 1.47343 7.05444 1.72338C6.80448 1.97334 6.66406 2.31235 6.66406 2.66583V3.99866" stroke="#7444CF" stroke-width="1.33283" stroke-linecap="round" stroke-linejoin="round"/>
<path d="M6.6637 6.9977V3.99884C6.6637 3.64535 6.52327 3.30634 6.27332 3.05639C6.02337 2.80644 5.68436 2.66602 5.33087 2.66602C4.97738 2.66602 4.63838 2.80644 4.38842 3.05639C4.13847 3.30634 3.99805 3.64535 3.99805 3.99884V9.33014" stroke="#7444CF" stroke-width="1.33283" stroke-linecap="round" stroke-linejoin="round"/>
<path d="M11.9947 5.33087C11.9947 4.97738 12.1351 4.63838 12.385 4.38842C12.635 4.13847 12.974 3.99805 13.3275 3.99805C13.681 3.99805 14.02 4.13847 14.2699 4.38842C14.5199 4.63838 14.6603 4.97738 14.6603 5.33087V9.32935C14.6603 10.7433 14.0986 12.0993 13.0988 13.0991C12.099 14.099 10.743 14.6606 9.32902 14.6606H7.9962C6.13024 14.6606 4.99734 14.0875 4.00439 13.1012L1.6053 10.7022C1.37601 10.4482 1.25316 10.1158 1.26218 9.7738C1.2712 9.43178 1.41141 9.10633 1.65376 8.86483C1.89612 8.62333 2.22207 8.48428 2.56412 8.47647C2.90617 8.46866 3.23812 8.59269 3.49125 8.82287L4.66414 9.99576" stroke="#7444CF" stroke-width="1.33283" stroke-linecap="round" stroke-linejoin="round"/>
</svg>
