<svg width="14" height="14" viewBox="0 0 14 14" fill="none" xmlns="http://www.w3.org/2000/svg">
<g clip-path="url(#clip0_335_2429)">
<path d="M5.7961 9.03989C5.74404 8.83805 5.63883 8.65386 5.49144 8.50646C5.34405 8.35907 5.15985 8.25387 4.95802 8.2018L1.37996 7.27914C1.31891 7.26182 1.26518 7.22505 1.22693 7.17442C1.18867 7.1238 1.16797 7.06207 1.16797 6.99861C1.16797 6.93516 1.18867 6.87343 1.22693 6.82281C1.26518 6.77218 1.31891 6.73541 1.37996 6.71809L4.95802 5.79485C5.15978 5.74283 5.34393 5.63771 5.49131 5.49043C5.6387 5.34314 5.74394 5.15907 5.7961 4.95734L6.71876 1.37928C6.73591 1.31799 6.77264 1.264 6.82334 1.22554C6.87405 1.18708 6.93594 1.16626 6.99958 1.16626C7.06322 1.16626 7.12512 1.18708 7.17582 1.22554C7.22652 1.264 7.26325 1.31799 7.2804 1.37928L8.20247 4.95734C8.25454 5.15918 8.35975 5.34337 8.50714 5.49077C8.65453 5.63816 8.83873 5.74336 9.04056 5.79543L12.6186 6.7175C12.6802 6.73447 12.7344 6.77116 12.7731 6.82194C12.8118 6.87272 12.8327 6.93479 12.8327 6.99861C12.8327 7.06244 12.8118 7.12451 12.7731 7.17529C12.7344 7.22607 12.6802 7.26276 12.6186 7.27973L9.04056 8.2018C8.83873 8.25387 8.65453 8.35907 8.50714 8.50646C8.35975 8.65386 8.25454 8.83805 8.20247 9.03989L7.27982 12.6179C7.26267 12.6792 7.22594 12.7332 7.17524 12.7717C7.12453 12.8102 7.06264 12.831 6.999 12.831C6.93536 12.831 6.87346 12.8102 6.82276 12.7717C6.77206 12.7332 6.73533 12.6792 6.71818 12.6179L5.7961 9.03989Z" stroke="#667085" stroke-width="1.16644" stroke-linecap="round" stroke-linejoin="round"/>
<path d="M11.6641 1.74976V4.08264" stroke="#667085" stroke-width="1.16644" stroke-linecap="round" stroke-linejoin="round"/>
<path d="M12.8309 2.91602H10.498" stroke="#667085" stroke-width="1.16644" stroke-linecap="round" stroke-linejoin="round"/>
<path d="M2.33203 9.91479V11.0812" stroke="#667085" stroke-width="1.16644" stroke-linecap="round" stroke-linejoin="round"/>
<path d="M2.91644 10.498H1.75" stroke="#667085" stroke-width="1.16644" stroke-linecap="round" stroke-linejoin="round"/>
</g>
<defs>
<clipPath id="clip0_335_2429">
<rect width="13.9973" height="13.9973" fill="white"/>
</clipPath>
</defs>
</svg>
