<svg width="16" height="16" viewBox="0 0 16 16" fill="none" xmlns="http://www.w3.org/2000/svg">
<g clip-path="url(#clip0_335_1260)">
<path d="M3.50891 6.50752C3.82072 5.56418 4.42247 4.7434 5.22833 4.16228C6.0342 3.58116 7.003 3.26938 7.99653 3.27142C9.12277 3.27142 10.141 3.67127 10.9407 4.32568L13.2679 1.99924C11.8497 0.763042 10.0391 0 7.99653 0C4.90838 0 2.24939 1.77266 0.892578 4.39832L3.50891 6.50752Z" fill="#EA4335"/>
<path d="M10.6895 12.0045C9.96307 12.473 9.04076 12.7229 7.99716 12.7229C7.00758 12.7249 6.04244 12.4156 5.23837 11.8388C4.43429 11.262 3.83204 10.4468 3.51686 9.50879L0.894531 11.5813C2.27267 14.273 4.93432 15.9943 7.99716 15.9943C10.1297 15.9943 11.907 15.2813 13.2125 14.0597L10.6895 12.0045Z" fill="#34A853"/>
<path d="M13.2114 8.05949C13.2114 7.38641 13.1235 6.51541 13.0182 6.04492L7.99609 6.05825V9.30235H10.855C10.7284 10.2886 10.1319 11.5468 9.18897 12.6197L11.712 14.675C13.2161 13.2942 14.2111 11.1296 14.2111 8.05949H13.2114Z" fill="#4A90E2"/>
<path d="M3.51666 9.50849C3.35351 9.02131 3.27068 8.51084 3.27142 7.99706C3.27142 7.47593 3.35472 6.97545 3.50933 6.50763L0.892993 4.39844C0.30655 5.47736 0 6.70223 0 7.99706C0 9.33789 0.327875 10.5934 0.971629 11.689L3.51666 9.50849Z" fill="#FBBC05"/>
</g>
<defs>
<clipPath id="clip0_335_1260">
<rect width="15.9939" height="15.9939" fill="white"/>
</clipPath>
</defs>
</svg>
