<svg width="16" height="16" viewBox="0 0 16 16" fill="none" xmlns="http://www.w3.org/2000/svg">
<g clip-path="url(#clip0_657_6000)">
<path d="M14.4806 11.9937L9.14932 2.66395C9.03308 2.45884 8.8645 2.28822 8.66079 2.16952C8.45708 2.05082 8.22554 1.98828 7.98977 1.98828C7.754 1.98828 7.52245 2.05082 7.31874 2.16952C7.11503 2.28822 6.94646 2.45884 6.83021 2.66395L1.49891 11.9937C1.38141 12.1972 1.3198 12.4282 1.32032 12.6631C1.32084 12.8981 1.38347 13.1288 1.50187 13.3318C1.62027 13.5347 1.79023 13.7028 1.99452 13.8189C2.1988 13.935 2.43016 13.9951 2.66513 13.993H13.3277C13.5616 13.9927 13.7912 13.931 13.9937 13.8139C14.1961 13.6968 14.3641 13.5285 14.481 13.326C14.5978 13.1234 14.6592 12.8936 14.6592 12.6598C14.6591 12.426 14.5975 12.1962 14.4806 11.9937Z" stroke="#7A48DB" stroke-width="1.33283" stroke-linecap="round" stroke-linejoin="round"/>
<path d="M7.99609 5.99609V8.66174" stroke="#7A48DB" stroke-width="1.33283" stroke-linecap="round" stroke-linejoin="round"/>
<path d="M7.99609 11.3281H8.00276" stroke="#7A48DB" stroke-width="1.33283" stroke-linecap="round" stroke-linejoin="round"/>
</g>
<defs>
<clipPath id="clip0_657_6000">
<rect width="15.9939" height="15.9939" fill="white"/>
</clipPath>
</defs>
</svg>
