<svg width="12" height="12" viewBox="0 0 12 12" fill="none" xmlns="http://www.w3.org/2000/svg">
<g clip-path="url(#clip0_657_6248)">
<path d="M10.9906 8.45392V9.95269C10.9911 10.0918 10.9626 10.2295 10.9069 10.357C10.8512 10.4845 10.7694 10.599 10.6669 10.693C10.5644 10.7871 10.4433 10.8587 10.3115 10.9033C10.1797 10.9478 10.04 10.9644 9.90147 10.9519C8.36415 10.7848 6.88745 10.2595 5.59002 9.41813C4.38292 8.65109 3.35952 7.62769 2.59248 6.42059C1.74816 5.11727 1.22273 3.63338 1.05874 2.08915C1.04626 1.951 1.06268 1.81176 1.10695 1.6803C1.15123 1.54884 1.22239 1.42804 1.31591 1.32559C1.40943 1.22314 1.52326 1.14129 1.65015 1.08524C1.77704 1.02919 1.91421 1.00018 2.05293 1.00005H3.55169C3.79415 0.997662 4.0292 1.08352 4.21303 1.24162C4.39686 1.39971 4.51694 1.61926 4.55087 1.85934C4.61413 2.33898 4.73145 2.80992 4.90058 3.26319C4.9678 3.442 4.98235 3.63634 4.9425 3.82317C4.90266 4.01 4.81009 4.18149 4.67577 4.31732L4.04129 4.9518C4.75248 6.20254 5.78808 7.23814 7.03883 7.94934L7.6733 7.31486C7.80914 7.18054 7.98063 7.08797 8.16746 7.04812C8.35429 7.00828 8.54862 7.02283 8.72744 7.09004C9.1807 7.25918 9.65165 7.3765 10.1313 7.43975C10.374 7.47399 10.5956 7.59623 10.754 7.78322C10.9125 7.97021 10.9967 8.20891 10.9906 8.45392Z" stroke="#7A48DB" stroke-width="0.999179" stroke-linecap="round" stroke-linejoin="round"/>
</g>
<defs>
<clipPath id="clip0_657_6248">
<rect width="11.9901" height="11.9901" fill="white"/>
</clipPath>
</defs>
</svg>
