<svg width="24" height="24" viewBox="0 0 24 24" fill="none" xmlns="http://www.w3.org/2000/svg">
<path d="M21.7953 20.2034L17.3431 15.7494C18.678 14.0098 19.3013 11.8276 19.0864 9.64545C18.8715 7.46328 17.8347 5.44454 16.1861 3.99875C14.5376 2.55295 12.4008 1.78837 10.2092 1.86009C8.01768 1.93182 5.93546 2.83448 4.38497 4.38497C2.83448 5.93546 1.93182 8.01768 1.86009 10.2092C1.78837 12.4008 2.55295 14.5376 3.99875 16.1861C5.44454 17.8347 7.46328 18.8715 9.64545 19.0864C11.8276 19.3013 14.0098 18.678 15.7494 17.3431L20.2053 21.8C20.31 21.9047 20.4342 21.9877 20.5709 22.0443C20.7077 22.1009 20.8542 22.1301 21.0022 22.1301C21.1502 22.1301 21.2967 22.1009 21.4335 22.0443C21.5702 21.9877 21.6944 21.9047 21.7991 21.8C21.9037 21.6954 21.9867 21.5711 22.0434 21.4344C22.1 21.2977 22.1291 21.1511 22.1291 21.0031C22.1291 20.8551 22.1 20.7086 22.0434 20.5719C21.9867 20.4351 21.9037 20.3109 21.7991 20.2063L21.7953 20.2034ZM4.12438 10.4994C4.12438 9.23853 4.49827 8.00599 5.19876 6.95762C5.89926 5.90926 6.8949 5.09216 8.05978 4.60965C9.22466 4.12714 10.5065 4.0009 11.7431 4.24688C12.9797 4.49286 14.1156 5.10002 15.0072 5.99158C15.8987 6.88314 16.5059 8.01905 16.7519 9.25568C16.9979 10.4923 16.8716 11.7741 16.3891 12.939C15.9066 14.1039 15.0895 15.0995 14.0411 15.8C12.9928 16.5005 11.7602 16.8744 10.4994 16.8744C8.80916 16.8726 7.18866 16.2004 5.9935 15.0053C4.79833 13.8101 4.12612 12.1896 4.12438 10.4994Z" fill="#7A48DB"/>
</svg>
