<svg width="32" height="32" viewBox="0 0 32 32" fill="none" xmlns="http://www.w3.org/2000/svg">
<path d="M21.3317 27.9986V25.3321C21.3317 23.9177 20.7699 22.5612 19.7697 21.561C18.7696 20.5609 17.4131 19.999 15.9987 19.999H7.99908C6.58466 19.999 5.22818 20.5609 4.22803 21.561C3.22789 22.5612 2.66602 23.9177 2.66602 25.3321V27.9986" stroke="#7A48DB" stroke-width="2.66653" stroke-linecap="round" stroke-linejoin="round"/>
<path d="M11.9991 14.6661C14.9444 14.6661 17.3321 12.2784 17.3321 9.33306C17.3321 6.38769 14.9444 4 11.9991 4C9.05371 4 6.66602 6.38769 6.66602 9.33306C6.66602 12.2784 9.05371 14.6661 11.9991 14.6661Z" stroke="#7A48DB" stroke-width="2.66653" stroke-linecap="round" stroke-linejoin="round"/>
<path d="M22.666 10.666L29.3323 17.3323" stroke="#7A48DB" stroke-width="2.66653" stroke-linecap="round" stroke-linejoin="round"/>
<path d="M29.3323 10.666L22.666 17.3323" stroke="#7A48DB" stroke-width="2.66653" stroke-linecap="round" stroke-linejoin="round"/>
</svg>
