<svg width="16" height="16" viewBox="0 0 16 16" fill="none" xmlns="http://www.w3.org/2000/svg">
<path d="M3.99924 5.99848C5.10339 5.99848 5.99848 5.10339 5.99848 3.99924C5.99848 2.89509 5.10339 2 3.99924 2C2.89509 2 2 2.89509 2 3.99924C2 5.10339 2.89509 5.99848 3.99924 5.99848Z" stroke="#7A48DB" stroke-width="1.33283" stroke-linecap="round" stroke-linejoin="round"/>
<path d="M5.41211 5.41211L7.99779 7.99779" stroke="#7A48DB" stroke-width="1.33283" stroke-linecap="round" stroke-linejoin="round"/>
<path d="M13.3291 2.66602L5.41211 10.583" stroke="#7A48DB" stroke-width="1.33283" stroke-linecap="round" stroke-linejoin="round"/>
<path d="M3.99924 13.9946C5.10339 13.9946 5.99848 13.0995 5.99848 11.9953C5.99848 10.8912 5.10339 9.99609 3.99924 9.99609C2.89509 9.99609 2 10.8912 2 11.9953C2 13.0995 2.89509 13.9946 3.99924 13.9946Z" stroke="#7A48DB" stroke-width="1.33283" stroke-linecap="round" stroke-linejoin="round"/>
<path d="M9.86328 9.86328L13.3286 13.3286" stroke="#7A48DB" stroke-width="1.33283" stroke-linecap="round" stroke-linejoin="round"/>
</svg>
