<svg width="16" height="16" viewBox="0 0 16 16" fill="none" xmlns="http://www.w3.org/2000/svg">
<path d="M8.14432 1.33203H7.8511C7.49761 1.33203 7.1586 1.47245 6.90865 1.72241C6.6587 1.97236 6.51827 2.31137 6.51827 2.66486V2.78481C6.51803 3.01854 6.45634 3.24809 6.33937 3.45045C6.2224 3.6528 6.05428 3.82084 5.85186 3.9377L5.5653 4.10431C5.36269 4.22129 5.13285 4.28287 4.89889 4.28287C4.66493 4.28287 4.43509 4.22129 4.23248 4.10431L4.13252 4.05099C3.82668 3.87457 3.46333 3.82671 3.12224 3.91792C2.78114 4.00913 2.49018 4.23195 2.31321 4.53748L2.1666 4.79071C1.99018 5.09655 1.94231 5.4599 2.03352 5.80099C2.12473 6.14209 2.34755 6.43305 2.65308 6.61002L2.75304 6.67666C2.95448 6.79296 3.12198 6.95994 3.23889 7.16103C3.3558 7.36211 3.41805 7.59029 3.41946 7.82289V8.16276C3.42039 8.39762 3.35925 8.62855 3.24222 8.83218C3.12519 9.0358 2.95644 9.20489 2.75304 9.32232L2.65308 9.38229C2.34755 9.55926 2.12473 9.85023 2.03352 10.1913C1.94231 10.5324 1.99018 10.8958 2.1666 11.2016L2.31321 11.4548C2.49018 11.7604 2.78114 11.9832 3.12224 12.0744C3.46333 12.1656 3.82668 12.1177 4.13252 11.9413L4.23248 11.888C4.43509 11.771 4.66493 11.7094 4.89889 11.7094C5.13285 11.7094 5.36269 11.771 5.5653 11.888L5.85186 12.0546C6.05428 12.1715 6.2224 12.3395 6.33937 12.5419C6.45634 12.7442 6.51803 12.9738 6.51827 13.2075V13.3275C6.51827 13.6809 6.6587 14.02 6.90865 14.2699C7.1586 14.5199 7.49761 14.6603 7.8511 14.6603H8.14432C8.49781 14.6603 8.83682 14.5199 9.08677 14.2699C9.33672 14.02 9.47715 13.6809 9.47715 13.3275V13.2075C9.47739 12.9738 9.53908 12.7442 9.65605 12.5419C9.77302 12.3395 9.94114 12.1715 10.1436 12.0546L10.4301 11.888C10.6327 11.771 10.8626 11.7094 11.0965 11.7094C11.3305 11.7094 11.5603 11.771 11.7629 11.888L11.8629 11.9413C12.1687 12.1177 12.5321 12.1656 12.8732 12.0744C13.2143 11.9832 13.5052 11.7604 13.6822 11.4548L13.8288 11.1949C14.0052 10.8891 14.0531 10.5257 13.9619 10.1847C13.8707 9.84356 13.6479 9.5526 13.3423 9.37563L13.2424 9.32232C13.039 9.20489 12.8702 9.0358 12.7532 8.83218C12.6362 8.62855 12.575 8.39762 12.576 8.16276V7.82955C12.575 7.5947 12.6362 7.36376 12.7532 7.16014C12.8702 6.95651 13.039 6.78742 13.2424 6.67L13.3423 6.61002C13.6479 6.43305 13.8707 6.14209 13.9619 5.80099C14.0531 5.4599 14.0052 5.09655 13.8288 4.79071L13.6822 4.53748C13.5052 4.23195 13.2143 4.00913 12.8732 3.91792C12.5321 3.82671 12.1687 3.87457 11.8629 4.05099L11.7629 4.10431C11.5603 4.22129 11.3305 4.28287 11.0965 4.28287C10.8626 4.28287 10.6327 4.22129 10.4301 4.10431L10.1436 3.9377C9.94114 3.82084 9.77302 3.6528 9.65605 3.45045C9.53908 3.24809 9.47739 3.01854 9.47715 2.78481V2.66486C9.47715 2.31137 9.33672 1.97236 9.08677 1.72241C8.83682 1.47245 8.49781 1.33203 8.14432 1.33203Z" stroke="#7A48DB" stroke-width="1.33283" stroke-linecap="round" stroke-linejoin="round"/>
<path d="M7.99728 9.99652C9.10143 9.99652 9.99652 9.10143 9.99652 7.99728C9.99652 6.89314 9.10143 5.99805 7.99728 5.99805C6.89314 5.99805 5.99805 6.89314 5.99805 7.99728C5.99805 9.10143 6.89314 9.99652 7.99728 9.99652Z" stroke="#7A48DB" stroke-width="1.33283" stroke-linecap="round" stroke-linejoin="round"/>
</svg>
