<svg width="32" height="32" viewBox="0 0 32 32" fill="none" xmlns="http://www.w3.org/2000/svg">
<path d="M10.666 2.66699V8.00005" stroke="#7A48DB" stroke-width="2.66653" stroke-linecap="round" stroke-linejoin="round"/>
<path d="M21.332 2.66699V8.00005" stroke="#7A48DB" stroke-width="2.66653" stroke-linecap="round" stroke-linejoin="round"/>
<path d="M27.9988 17.3324V7.99954C27.9988 7.29233 27.7178 6.61409 27.2178 6.11402C26.7177 5.61394 26.0395 5.33301 25.3322 5.33301H6.66653C5.95932 5.33301 5.28108 5.61394 4.78101 6.11402C4.28094 6.61409 4 7.29233 4 7.99954V26.6653C4 27.3725 4.28094 28.0507 4.78101 28.5508C5.28108 29.0508 5.95932 29.3318 6.66653 29.3318H17.3327" stroke="#7A48DB" stroke-width="2.66653" stroke-linecap="round" stroke-linejoin="round"/>
<path d="M4 13.333H27.9988" stroke="#7A48DB" stroke-width="2.66653" stroke-linecap="round" stroke-linejoin="round"/>
<path d="M22.666 29.3314L29.3323 22.665" stroke="#7A48DB" stroke-width="2.66653" stroke-linecap="round" stroke-linejoin="round"/>
<path d="M22.666 22.665L29.3323 29.3314" stroke="#7A48DB" stroke-width="2.66653" stroke-linecap="round" stroke-linejoin="round"/>
</svg>
