<svg width="18" height="10" viewBox="0 0 18 10" fill="none" xmlns="http://www.w3.org/2000/svg">
<path d="M0.332033 7.83109L7.83203 0.331095C7.93655 0.226215 8.06074 0.142999 8.19749 0.086218C8.33423 0.0294372 8.48084 0.000207134 8.62891 0.000207147C8.77697 0.00020716 8.92358 0.0294373 9.06033 0.0862181C9.19708 0.142999 9.32127 0.226215 9.42578 0.331095L16.9258 7.8311C17.1371 8.04244 17.2559 8.32908 17.2559 8.62797C17.2559 8.92686 17.1371 9.2135 16.9258 9.42485C16.7144 9.63619 16.4278 9.75492 16.1289 9.75492C15.83 9.75492 15.5434 9.63619 15.332 9.42485L8.62797 2.72078L1.92391 9.42578C1.71256 9.63713 1.42592 9.75586 1.12703 9.75586C0.828148 9.75586 0.541502 9.63713 0.330158 9.42578C0.118815 9.21444 8.0181e-05 8.92779 8.02072e-05 8.62891C8.02333e-05 8.33002 0.118815 8.04338 0.330158 7.83203L0.332033 7.83109Z" fill="#98A2B3"/>
</svg>
