<svg width="16" height="16" viewBox="0 0 16 16" fill="none" xmlns="http://www.w3.org/2000/svg">
<g clip-path="url(#clip0_335_1599)">
<path d="M13.3286 6.66431C13.3286 9.99171 9.63736 13.4571 8.39783 14.5273C8.28236 14.6141 8.14179 14.6611 7.99732 14.6611C7.85284 14.6611 7.71228 14.6141 7.5968 14.5273C6.35727 13.4571 2.66602 9.99171 2.66602 6.66431C2.66602 5.25036 3.2277 3.89432 4.22752 2.89451C5.22733 1.8947 6.58337 1.33301 7.99732 1.33301C9.41126 1.33301 10.7673 1.8947 11.7671 2.89451C12.7669 3.89432 13.3286 5.25036 13.3286 6.66431Z" stroke="#667085" stroke-width="1.33283" stroke-linecap="round" stroke-linejoin="round"/>
<path d="M7.99728 8.66351C9.10143 8.66351 9.99652 7.76843 9.99652 6.66428C9.99652 5.56013 9.10143 4.66504 7.99728 4.66504C6.89314 4.66504 5.99805 5.56013 5.99805 6.66428C5.99805 7.76843 6.89314 8.66351 7.99728 8.66351Z" stroke="#667085" stroke-width="1.33283" stroke-linecap="round" stroke-linejoin="round"/>
</g>
<defs>
<clipPath id="clip0_335_1599">
<rect width="15.9939" height="15.9939" fill="white"/>
</clipPath>
</defs>
</svg>
