<svg width="16" height="16" viewBox="0 0 16 16" fill="none" xmlns="http://www.w3.org/2000/svg">
<path d="M9.99655 1.33301H3.99884C3.64535 1.33301 3.30634 1.47343 3.05639 1.72338C2.80644 1.97334 2.66602 2.31235 2.66602 2.66583V13.3284C2.66602 13.6819 2.80644 14.0209 3.05639 14.2709C3.30634 14.5208 3.64535 14.6613 3.99884 14.6613H11.9958C12.3493 14.6613 12.6883 14.5208 12.9382 14.2709C13.1882 14.0209 13.3286 13.6819 13.3286 13.3284V4.66507L9.99655 1.33301Z" stroke="#EBE7FF" stroke-width="1.33283" stroke-linecap="round" stroke-linejoin="round"/>
<path d="M9.33008 1.33301V3.99866C9.33008 4.35215 9.4705 4.69115 9.72045 4.94111C9.97041 5.19106 10.3094 5.33148 10.6629 5.33148H13.3286" stroke="#EBE7FF" stroke-width="1.33283" stroke-linecap="round" stroke-linejoin="round"/>
<path d="M6.66486 5.99756H5.33203" stroke="#EBE7FF" stroke-width="1.33283" stroke-linecap="round" stroke-linejoin="round"/>
<path d="M10.6633 8.66357H5.33203" stroke="#EBE7FF" stroke-width="1.33283" stroke-linecap="round" stroke-linejoin="round"/>
<path d="M10.6633 11.3291H5.33203" stroke="#EBE7FF" stroke-width="1.33283" stroke-linecap="round" stroke-linejoin="round"/>
</svg>
